<svg width="40" height="40" viewBox="0 0 40 40" fill="none" xmlns="http://www.w3.org/2000/svg">
<circle cx="20" cy="20" r="20" fill="#F4F4F4"/>
<g clip-path="url(#clip0_8_11)">
<path d="M27.594 24.188H27.5937C27.1356 24.188 26.752 23.8446 26.7013 23.3894L26.0068 17.1373C25.7338 14.6804 24.0201 12.7082 21.7617 12.0223C21.9291 11.7277 22.0253 11.3876 22.0253 11.0252C22.0253 9.90853 21.1167 9 20 9C18.8833 9 17.9747 9.90853 17.9747 11.0252C17.9747 11.3875 18.0708 11.7276 18.2381 12.0221C15.9802 12.7077 14.2662 14.6802 13.9932 17.1373L13.2987 23.3891C13.248 23.8445 12.8644 24.188 12.406 24.188C11.2893 24.188 10.3807 25.0965 10.3807 26.2132C10.3807 27.33 11.2893 28.2385 12.406 28.2385H16.6559C16.9578 29.8093 18.3419 31 20 31C21.6577 31 23.0419 29.8094 23.344 28.2385H27.594C28.7107 28.2385 29.6193 27.33 29.6193 26.2133C29.6193 25.0966 28.7108 24.188 27.594 24.188ZM20 10.2891C20.4059 10.2891 20.7362 10.6193 20.7362 11.0252C20.7362 11.4312 20.4059 11.7615 20 11.7615C19.5941 11.7615 19.2638 11.4312 19.2638 11.0253C19.2638 10.6194 19.5941 10.2891 20 10.2891ZM14.5799 23.5315L15.2744 17.2796C15.5422 14.8686 17.5735 13.0505 20.0007 13.0505C22.4265 13.0505 24.4578 14.8686 24.7256 17.2796L25.4201 23.5317C25.4461 23.7642 25.5075 23.9847 25.5989 24.188H14.4011C14.4925 23.9847 14.554 23.7641 14.5799 23.5315ZM19.9993 29.7109C19.0569 29.7109 18.2565 29.0917 17.9833 28.2385H22.0166C21.7434 29.0916 20.9425 29.7109 19.9993 29.7109ZM27.594 26.9495H12.406C12.0001 26.9495 11.6698 26.6192 11.6698 26.2133C11.6698 25.8074 12.0001 25.4771 12.406 25.4771H12.4064H27.5941C28 25.4771 28.3302 25.8074 28.3302 26.2133C28.3302 26.6192 28 26.9495 27.594 26.9495Z" fill="#0069FF"/>
</g>
<defs>
<clipPath id="clip0_8_11">
<rect width="22" height="22" fill="white" transform="translate(9 9)"/>
</clipPath>
</defs>
</svg>
