<!-- icon666.com - MILLIONS OF FREE VECTOR ICONS --><svg id="Layer_1" enable-background="new 0 0 68 68" viewBox="0 0 68 68" xmlns="http://www.w3.org/2000/svg"><g><g><g><path d="m18.9627476 35.6034241c0-9.4029179 7.6213512-17.0260162 17.0242901-17.0260162v17.0260162z" fill="#10b491"></path></g></g><g><g><path d="m38.1573372 52.4935036c.4253387-.0557518.845459-.1255455 1.2603455-.2092171-.4148865.0854568-.8350068.1551704-1.2603455.2092171z" fill="#f29907"></path></g></g><g><g><path d="m41.4502831 51.7351875c.2632065-.0906525.5229683-.1847916.7792168-.2859116-.2562486.1029092-.5160104.1970483-.7792168.2859116z" fill="#f29907"></path></g></g><g><g><path d="m44.8164291 50.1645889c.2336082-.1430016.4637032-.289402.6903114-.4427872-.2248611.1533852-.4549598.3015748-.6903114.4427872z" fill="#f29907"></path></g></g><g><g><path d="m45.5067406 49.7218018c.2266235-.1533813.4480171-.3120422.6676636-.4741936-.2178994.1638527-.4410401.3225136-.6676636.4741936z" fill="#f29907"></path></g></g><g><g><path d="m48.0274506 47.643898c-.3852692.3852463-.787941.751255-1.2098083 1.0981941.4201241-.3486443.8227959-.7147369 1.2080612-1.0999832z" fill="#f29907"></path></g></g><g><g><path d="m53.8929329 16.5507545c.2791328.2626991.2803421.7097435.0104752.9819527l-5.9299889 5.9814701-11.9863815 12.0892468v-25.4480734c0-.3838444.3183708-.7010975.7020798-.6909847 6.651947.1753168 12.6860351 2.8345613 17.2038154 7.0863885z" fill="#fb374b"></path></g></g><g><g><path d="m48.0257034 47.6421089c-.3852654.3852463-.7879372.751339-1.2080612 1.0999832-.2109222.1726189-.4253349.3416634-.6432381.5055161-.2196465.1621513-.44104.3208122-.6676636.4741936-.2266083.1533852-.4567032.2997856-.6903114.4427872-.468914.2841225-.9517899.5473099-1.4486046.7861481-.3713036.1795998-.7495918.3451576-1.1365814.498539 0 0 0-.0017014-.0017433 0-.2562485.10112-.5160103.1952591-.7792168.2859116-.6606865.2231789-1.3388023.4061852-2.0326004.549099-.4148865.0836716-.8350067.1534653-1.2603455.2092171-.7112465.0888634-1.4346657.1359367-2.1702995.1359367-9.4029388-.0017052-17.0242901-7.6213112-17.0242901-17.024231l17.0242901-.0017853z" fill="#f29907"></path></g></g><g><g><path d="m57.3711052 35.6098976c0 5.6530685-2.1930237 10.7944374-5.7743492 14.617485-.2628059.2805443-.7124023.2798576-.9842262.0080338l-14.6254921-14.6255188 15.0560112-15.1852169c3.9084854 3.8734703 6.3280563 9.246872 6.3280563 15.1852169z" fill="#1b85b5"></path></g></g><g><g><path d="m15.064 57.821h46.096v1.79h-46.096z" fill="#3b3d94"></path></g></g><g><g><path d="m59.7642136 61.6463318v-5.8608131c0-.2565002.2728119-.4209442.4996262-.3011589l5.5552673 2.9338264c.2421722.1278954.242012.4748077-.0002899.6024704l-5.5552673 2.9269867c-.2267991.1194954-.4993363-.04496-.4993363-.3013115z" fill="#3b3d94"></path></g></g><g><g><path d="m16.5696354 55.7853813v5.8608131c0 .2564964-.2728119.4209404-.4996223.3011589l-5.5552731-2.9338264c-.2421722-.1278954-.2420044-.4748116.0002899-.6024704l5.5552731-2.9269867c.226799-.1194992.4993324.0449562.4993324.3013115z" fill="#3b3d94"></path></g></g><g><g><path d="m4.377 10.743h1.79v46.096h-1.79z" fill="#3b3d94"></path></g></g><g><g><path d="m2.3415544 55.4444313 5.8606358-.0000916c.2564907-.0000038.4209375.2728081.3011646.4996262l-2.9335723 5.5554008c-.1278832.2421799-.4747875.2420159-.6024525-.0002784l-2.927064-5.5553093c-.1195001-.2268028.0449417-.4993439.3012884-.4993477z" fill="#3b3d94"></path></g></g><g><g><path d="m8.2010374 12.2491026-5.8606358.0000916c-.2564909.0000048-.4209373-.272809-.3011649-.4996262l2.9335725-5.5554028c.1278834-.2421775.4747882-.2420163.6024528.0002809l2.9270639 5.5553107c.1195003.2268009-.0449418.499342-.3012885.4993458z" fill="#3b3d94"></path></g></g><g><g><path d="m14.3468523 14.9412441h-4.821188c-.1244602 0-.2253542.1008949-.2253542.2253551v1.3663692c0 .1244602.100894.2253551.2253542.2253551h4.821188c.1244602 0 .2253551-.1008949.2253551-.2253551v-1.3663692c.0000001-.1244601-.1008949-.2253551-.2253551-.2253551z" fill="#3b3d94"></path></g></g><g><g><path d="m12.8469486 20.940239h-3.3212843c-.1244602 0-.2253542.1008949-.2253542.2253551v1.3663692c0 .1244602.100894.2253551.2253542.2253551h3.3212843c.1244593 0 .2253542-.1008949.2253542-.2253551v-1.3663692c0-.1244602-.1008949-.2253551-.2253542-.2253551z" fill="#3b3d94"></path></g></g><g><g><path d="m14.3468523 26.9392338h-4.821188c-.1244602 0-.2253542.1008949-.2253542.2253532v1.3663712c0 .1244583.100894.2253532.2253542.2253532h4.821188c.1244602 0 .2253551-.1008949.2253551-.2253532v-1.3663712c.0000001-.1244583-.1008949-.2253532-.2253551-.2253532z" fill="#3b3d94"></path></g></g><g><g><path d="m12.8469486 32.9382286h-3.3212843c-.1244602 0-.2253542.1008949-.2253542.2253532v1.3663712c0 .1244583.100894.2253532.2253542.2253532h3.3212843c.1244593 0 .2253542-.1008949.2253542-.2253532v-1.3663712c0-.1244583-.1008949-.2253532-.2253542-.2253532z" fill="#3b3d94"></path></g></g><g><g><path d="m14.3468523 38.9372215h-4.821188c-.1244602 0-.2253542.1008949-.2253542.2253532v1.3663712c0 .1244583.100894.2253532.2253542.2253532h4.821188c.1244602 0 .2253551-.1008949.2253551-.2253532v-1.3663712c.0000001-.1244582-.1008949-.2253532-.2253551-.2253532z" fill="#3b3d94"></path></g></g><g><g><path d="m14.3468523 50.9352112h-4.821188c-.1244602 0-.2253542.1008949-.2253542.2253532v1.3663712c0 .1244583.100894.2253532.2253542.2253532h4.821188c.1244602 0 .2253551-.1008949.2253551-.2253532v-1.3663712c.0000001-.1244583-.1008949-.2253532-.2253551-.2253532z" fill="#3b3d94"></path></g></g><g><g><path d="m12.8469486 44.9362144h-3.3212843c-.1244602 0-.2253542.1008949-.2253542.2253571v1.3663673c0 .1244621.100894.2253571.2253542.2253571h3.3212843c.1244593 0 .2253542-.1008949.2253542-.2253571v-1.3663673c0-.1244621-.1008949-.2253571-.2253542-.2253571z" fill="#3b3d94"></path></g></g></g></svg>