<svg width="50" height="50" viewBox="0 0 50 50" fill="none" xmlns="http://www.w3.org/2000/svg">
<g clip-path="url(#clip0_6_3)">
<path d="M25.1108 33.2266C30.1251 33.2266 34.224 29.1276 34.224 24.1133C34.224 19.099 30.1251 15 25.1108 15C20.0964 15 15.9976 19.099 15.9976 24.1133C15.9976 29.1276 20.0965 33.2266 25.1108 33.2266Z" fill="#484F59"/>
<path d="M41.5 41C41.2612 40.403 40.3582 39.0174 40 38.5C38.1694 35.7938 35.1792 34.3408 31.9955 33.903C31.5976 33.8633 31.1598 33.9428 30.8414 34.1816C29.17 35.4153 27.1802 36.052 25.1108 36.052C23.0414 36.052 21.0516 35.4153 19.3802 34.1816C19.0618 33.9428 18.624 33.8234 18.2261 33.903C15.0424 34.3408 11.977 35.7938 10.1862 38.5C9.68142 39.1134 8.73866 40.4429 8.49994 41C8.38057 41.2388 8.42034 41.5174 8.5397 41.7562C8.8581 42.3133 9.82806 42.4395 10.1862 42.917C10.7433 43.6732 11.7394 44.2898 12.4159 44.9266C12.973 45.4837 13.6098 46.001 14.2466 46.5184C17.3904 48.8664 21.171 50.1 25.071 50.1C28.971 50.1 32.7517 48.8663 35.8955 46.5184C36.5322 46.0409 37.169 45.4837 37.7262 44.9266C38.3629 44.2898 39.2781 43.6731 39.8353 42.917C40.2332 42.3996 41.3409 42.3731 41.6592 41.816C41.8581 41.5772 41.6194 41.2387 41.5 41Z" fill="#484F59"/>
</g>
<circle cx="25" cy="25" r="24" stroke="#484F59" stroke-width="2"/>
<defs>
<clipPath id="clip0_6_3">
<rect width="46.08" height="46.08" fill="white" transform="translate(2.00012 3.89999)"/>
</clipPath>
</defs>
</svg>
